<svg xmlns="http://www.w3.org/2000/svg" width="375" viewBox="0 0 375 375" height="375" version="1.0"><defs><clipPath id="a"><path d="M 234 146 L 301.257812 146 L 301.257812 209 L 234 209 Z M 234 146"/></clipPath><clipPath id="b"><path d="M 118 223 L 175 223 L 175 257.953125 L 118 257.953125 Z M 118 223"/></clipPath><clipPath id="c"><path d="M 165 37.5 L 176 37.5 L 176 48 L 165 48 Z M 165 37.5"/></clipPath><clipPath id="d"><path d="M 101.007812 128 L 112 128 L 112 140 L 101.007812 140 Z M 101.007812 128"/></clipPath></defs><g><g><g><path d="M 64.558594 1.761719 C 65.359375 1.761719 66.320312 0.640625 67.28125 -0.320312 C 67.601562 -0.800781 67.601562 -1.28125 67.28125 -1.441406 C 86.34375 -23.226562 99.160156 -40.527344 99.160156 -46.777344 C 99.160156 -48.859375 97.878906 -49.980469 95.796875 -49.980469 C 89.707031 -49.980469 74.167969 -36.042969 59.589844 -20.503906 C 58.628906 -19.382812 58.308594 -19.863281 59.109375 -20.824219 C 64.078125 -28.195312 67.441406 -34.121094 67.441406 -37.804688 C 67.441406 -40.367188 65.839844 -41.808594 62.957031 -41.808594 C 59.109375 -41.808594 53.984375 -39.246094 48.539062 -35.242188 C 50.460938 -39.40625 51.742188 -43.089844 51.742188 -45.976562 C 51.742188 -49.5 49.660156 -51.742188 46.617188 -51.742188 C 39.886719 -51.742188 32.199219 -46.777344 24.1875 -37.644531 C 24.027344 -37.484375 24.027344 -37.324219 24.027344 -37.003906 C 24.027344 -36.523438 24.347656 -36.203125 24.828125 -36.203125 C 25.148438 -36.203125 25.46875 -36.203125 25.628906 -36.523438 C 33.320312 -45.175781 40.527344 -49.820312 46.617188 -49.820312 C 48.699219 -49.820312 49.820312 -48.378906 49.820312 -45.976562 C 49.820312 -42.609375 48.058594 -37.804688 45.335938 -32.839844 C 31.558594 -21.945312 16.980469 -4.644531 16.980469 -0.960938 C 16.980469 -0.160156 17.621094 0.480469 18.582031 0.480469 C 22.90625 0.480469 38.605469 -16.980469 46.777344 -31.71875 C 52.863281 -36.523438 58.789062 -39.886719 62.957031 -39.886719 C 64.71875 -39.886719 65.519531 -39.246094 65.519531 -37.804688 C 65.519531 -32.679688 57.507812 -21.625 51.261719 -12.816406 C 49.339844 -10.09375 47.578125 -7.6875 46.296875 -5.765625 C 45.976562 -5.285156 46.136719 -4.804688 46.617188 -4.484375 C 47.097656 -4.164062 47.578125 -4.164062 47.898438 -4.644531 C 61.195312 -21.144531 88.105469 -48.21875 95.796875 -48.21875 C 96.917969 -48.21875 97.238281 -47.738281 97.238281 -46.777344 C 97.238281 -41.167969 83.941406 -23.226562 64.71875 -1.28125 C 64.078125 -0.480469 63.597656 0.160156 63.597656 0.640625 C 63.597656 1.28125 63.917969 1.761719 64.558594 1.761719 Z M 19.863281 -1.761719 C 19.0625 -1.441406 19.0625 -1.761719 19.382812 -2.402344 C 21.464844 -6.566406 29.796875 -16.5 39.085938 -25.148438 C 41.488281 -27.394531 43.089844 -28.515625 42.929688 -28.355469 C 35.5625 -16.980469 24.347656 -4.324219 19.863281 -1.761719 Z M 19.863281 -1.761719" transform="translate(.809 338.024)"/></g></g></g><g><g><g><path d="M 5.285156 0.480469 C 10.253906 0.480469 25.789062 -4.003906 37.003906 -12.335938 C 37.324219 -12.496094 37.484375 -12.816406 37.484375 -13.136719 C 37.484375 -13.617188 37.003906 -13.9375 36.523438 -13.9375 C 36.363281 -13.9375 36.203125 -13.9375 36.042969 -13.777344 C 24.988281 -5.765625 9.933594 -1.441406 5.285156 -1.441406 C 1.601562 -1.441406 -0.320312 -2.402344 -0.320312 -4.484375 C -0.320312 -6.566406 1.28125 -9.132812 3.363281 -11.375 C 4.324219 -10.894531 5.605469 -10.734375 7.367188 -10.734375 C 10.253906 -10.734375 13.9375 -13.136719 13.9375 -15.21875 C 13.9375 -16.820312 12.816406 -17.78125 11.054688 -17.78125 C 5.765625 -17.78125 -2.242188 -9.773438 -2.242188 -4.484375 C -2.242188 -1.28125 0.640625 0.480469 5.285156 0.480469 Z M 7.367188 -12.496094 C 6.246094 -12.496094 5.445312 -12.65625 4.804688 -12.816406 C 6.886719 -14.578125 9.132812 -15.859375 11.054688 -15.859375 C 11.855469 -15.859375 12.175781 -15.699219 12.175781 -15.21875 C 12.175781 -14.257812 9.132812 -12.496094 7.367188 -12.496094 Z M 7.367188 -12.496094" transform="translate(93.395 338.024)"/></g></g></g><g><g><g><path d="M -4.484375 0.960938 C -3.203125 0.960938 -0.960938 -0.640625 6.246094 -6.726562 C 13.457031 -12.496094 21.785156 -19.542969 25.628906 -19.542969 C 26.273438 -19.542969 26.59375 -19.222656 26.59375 -18.742188 C 26.59375 -17.621094 25.308594 -15.21875 21.945312 -9.933594 C 18.902344 -5.605469 18.101562 -4.003906 18.101562 -2.882812 C 18.101562 -2.082031 18.421875 -1.441406 19.222656 -1.441406 C 20.183594 -1.441406 21.785156 -2.242188 26.113281 -4.964844 C 31.71875 -8.328125 33.960938 -9.453125 35.082031 -9.453125 C 35.5625 -9.453125 35.722656 -9.132812 35.722656 -8.972656 C 35.722656 -8.328125 35.5625 -7.527344 35.402344 -6.566406 C 35.242188 -5.605469 35.242188 -4.484375 35.242188 -3.363281 C 35.242188 -1.441406 36.683594 -0.320312 39.246094 -0.320312 C 43.734375 -0.320312 50.460938 -3.683594 62.957031 -12.335938 C 63.277344 -12.496094 63.4375 -12.816406 63.4375 -13.136719 C 63.4375 -13.617188 62.957031 -13.9375 62.476562 -13.9375 C 62.316406 -13.9375 62.15625 -13.9375 61.996094 -13.777344 C 49.820312 -5.445312 43.253906 -2.082031 39.246094 -2.082031 C 37.644531 -2.082031 37.003906 -2.5625 37.003906 -3.363281 C 37.003906 -4.324219 37.164062 -5.445312 37.324219 -6.40625 C 37.324219 -7.207031 37.484375 -8.167969 37.484375 -8.972656 C 37.484375 -10.414062 36.84375 -11.214844 35.402344 -11.214844 C 33.160156 -11.214844 28.835938 -8.652344 25.148438 -6.566406 L 21.625 -4.324219 C 20.984375 -4.003906 20.503906 -4.484375 20.984375 -5.125 L 23.386719 -8.972656 C 27.074219 -14.578125 28.515625 -16.980469 28.515625 -18.902344 C 28.515625 -20.503906 27.234375 -21.304688 25.148438 -21.304688 C 22.105469 -21.304688 16.980469 -17.78125 5.125 -8.007812 C 1.601562 -5.285156 -0.640625 -3.363281 -2.242188 -2.242188 C -2.722656 -1.921875 -3.363281 -2.242188 -2.882812 -2.882812 C -0.960938 -6.246094 3.683594 -12.335938 8.8125 -16.980469 C 8.972656 -17.140625 9.132812 -17.460938 9.132812 -17.621094 C 9.132812 -18.261719 8.652344 -18.582031 8.167969 -18.582031 C 8.007812 -18.582031 7.6875 -18.582031 7.527344 -18.421875 C 1.921875 -13.296875 -5.925781 -2.882812 -5.925781 -0.640625 C -5.925781 0.320312 -5.445312 0.800781 -4.484375 0.960938 Z M -4.484375 0.960938" transform="translate(126.232 338.024)"/></g></g></g><g><g><g><path d="M -0.960938 1.28125 C 4.164062 1.28125 9.132812 -7.367188 8.167969 -13.617188 C 8.167969 -13.9375 8.328125 -14.257812 8.652344 -13.9375 C 17.941406 -8.167969 30.277344 -7.527344 38.605469 -12.335938 C 38.925781 -12.496094 39.246094 -12.816406 39.246094 -13.136719 C 39.246094 -13.617188 38.765625 -13.9375 38.285156 -13.9375 L 37.804688 -13.9375 C 30.117188 -9.453125 18.902344 -10.09375 10.253906 -15.21875 C 9.933594 -15.378906 9.933594 -15.539062 10.253906 -15.699219 C 10.414062 -15.859375 10.734375 -15.859375 10.894531 -16.019531 C 11.375 -16.019531 11.535156 -16.339844 11.535156 -16.820312 C 11.535156 -17.300781 11.214844 -17.78125 10.734375 -17.78125 C 10.574219 -17.78125 10.414062 -17.78125 10.414062 -17.621094 C 9.613281 -17.460938 8.8125 -17.140625 8.167969 -16.820312 C 7.847656 -16.660156 7.847656 -16.660156 7.527344 -16.820312 C 6.886719 -16.980469 6.246094 -16.5 5.925781 -15.859375 C 5.925781 -15.699219 5.765625 -15.699219 5.765625 -15.539062 C 0.160156 -12.175781 -4.003906 -6.886719 -4.003906 -2.402344 C -4.003906 -0.160156 -2.882812 1.28125 -0.960938 1.28125 Z M -0.960938 -0.480469 C -1.761719 -0.480469 -2.242188 -1.121094 -2.242188 -2.402344 C -2.242188 -6.085938 1.441406 -10.734375 6.40625 -13.777344 C 7.207031 -8.652344 2.882812 -0.480469 -0.960938 -0.480469 Z M -0.960938 -0.480469" transform="translate(185.18 338.024)"/></g></g></g><g><g><g><path d="M 2.082031 17.300781 C 11.695312 17.300781 39.566406 -0.800781 55.585938 -12.335938 C 55.746094 -12.496094 55.90625 -12.816406 55.90625 -13.136719 C 55.90625 -13.617188 55.585938 -13.9375 54.945312 -13.9375 C 54.785156 -13.9375 54.625 -13.9375 54.464844 -13.777344 C 38.605469 -2.242188 11.214844 15.378906 2.082031 15.378906 C 0.160156 15.378906 -0.480469 14.738281 -0.480469 13.136719 C -0.480469 8.488281 7.6875 0.480469 15.539062 -7.207031 C 22.425781 -14.097656 29.316406 -20.824219 29.316406 -24.667969 C 29.316406 -26.59375 27.074219 -27.875 24.347656 -30.4375 C 30.4375 -37.003906 34.921875 -42.929688 34.921875 -45.175781 C 34.921875 -46.296875 34.28125 -47.097656 33.160156 -47.097656 C 28.195312 -47.097656 16.980469 -38.605469 16.980469 -34.601562 C 16.980469 -33.160156 18.582031 -32.039062 21.464844 -30.117188 C 16.179688 -24.507812 9.453125 -18.421875 3.042969 -13.777344 C 2.882812 -13.617188 2.722656 -13.296875 2.722656 -13.136719 C 2.722656 -12.496094 3.042969 -12.175781 3.523438 -12.175781 C 3.84375 -12.175781 4.003906 -12.175781 4.164062 -12.335938 C 9.933594 -16.5 17.140625 -22.90625 23.066406 -29.15625 C 26.273438 -26.914062 27.394531 -25.789062 27.394531 -24.667969 C 27.394531 -21.625 21.144531 -15.378906 14.257812 -8.652344 C 6.40625 -0.800781 -2.242188 7.6875 -2.242188 13.136719 C -2.242188 15.699219 -0.960938 17.300781 2.082031 17.300781 Z M 22.746094 -31.398438 C 19.863281 -33.320312 18.902344 -34.28125 18.902344 -34.601562 C 18.902344 -37.324219 28.035156 -44.214844 32.359375 -45.015625 C 32.839844 -45.175781 33.160156 -44.855469 33 -44.375 C 31.878906 -41.648438 26.113281 -34.921875 22.746094 -31.398438 Z M 22.746094 -31.398438" transform="translate(219.78 338.024)"/></g></g></g><g><g><g><path d="M 11.535156 -20.664062 C 11.855469 -20.664062 12.015625 -20.664062 12.175781 -20.984375 L 12.816406 -21.625 C 13.296875 -22.425781 13.9375 -23.226562 14.257812 -23.546875 C 14.417969 -23.707031 14.417969 -24.027344 14.417969 -24.1875 C 14.417969 -24.667969 14.097656 -25.148438 13.617188 -25.148438 C 13.296875 -25.148438 12.976562 -24.988281 12.816406 -24.828125 C 12.496094 -24.347656 11.855469 -23.386719 11.375 -22.746094 L 10.734375 -22.105469 C 10.574219 -21.945312 10.574219 -21.785156 10.574219 -21.464844 C 10.574219 -20.984375 11.054688 -20.664062 11.535156 -20.664062 Z M 1.28125 0.960938 C 6.726562 0.960938 23.546875 -6.886719 32.199219 -12.335938 C 32.359375 -12.496094 32.519531 -12.816406 32.519531 -13.136719 C 32.519531 -13.617188 32.199219 -13.9375 31.558594 -13.9375 L 31.078125 -13.9375 C 22.746094 -8.488281 6.246094 -0.960938 1.28125 -0.960938 C -0.480469 -0.960938 -1.28125 -1.601562 -1.28125 -3.203125 C -1.28125 -5.445312 2.5625 -10.894531 8.007812 -16.5 C 8.167969 -16.660156 8.328125 -16.820312 8.328125 -17.140625 C 8.328125 -17.621094 7.847656 -17.941406 7.367188 -17.941406 C 7.046875 -17.941406 6.886719 -17.941406 6.726562 -17.78125 C 0.800781 -11.695312 -3.042969 -6.246094 -3.042969 -3.203125 C -3.042969 -0.640625 -1.441406 0.960938 1.28125 0.960938 Z M 1.28125 0.960938" transform="translate(271.199 338.024)"/></g></g></g><g><g><g><path d="M 5.285156 0.480469 C 10.253906 0.480469 25.789062 -4.003906 37.003906 -12.335938 C 37.324219 -12.496094 37.484375 -12.816406 37.484375 -13.136719 C 37.484375 -13.617188 37.003906 -13.9375 36.523438 -13.9375 C 36.363281 -13.9375 36.203125 -13.9375 36.042969 -13.777344 C 24.988281 -5.765625 9.933594 -1.441406 5.285156 -1.441406 C 1.601562 -1.441406 -0.320312 -2.402344 -0.320312 -4.484375 C -0.320312 -6.566406 1.28125 -9.132812 3.363281 -11.375 C 4.324219 -10.894531 5.605469 -10.734375 7.367188 -10.734375 C 10.253906 -10.734375 13.9375 -13.136719 13.9375 -15.21875 C 13.9375 -16.820312 12.816406 -17.78125 11.054688 -17.78125 C 5.765625 -17.78125 -2.242188 -9.773438 -2.242188 -4.484375 C -2.242188 -1.28125 0.640625 0.480469 5.285156 0.480469 Z M 7.367188 -12.496094 C 6.246094 -12.496094 5.445312 -12.65625 4.804688 -12.816406 C 6.886719 -14.578125 9.132812 -15.859375 11.054688 -15.859375 C 11.855469 -15.859375 12.175781 -15.699219 12.175781 -15.21875 C 12.175781 -14.257812 9.132812 -12.496094 7.367188 -12.496094 Z M 7.367188 -12.496094" transform="translate(299.23 338.024)"/></g></g></g><g><g><g><path d="M -0.640625 7.6875 C 4.644531 7.6875 11.535156 2.082031 14.738281 -2.5625 L 15.21875 -2.882812 C 19.382812 -4.164062 24.507812 -5.765625 29.957031 -7.367188 C 35.402344 -8.972656 41.167969 -10.574219 45.976562 -12.175781 C 46.457031 -12.335938 46.617188 -12.65625 46.617188 -13.136719 C 46.617188 -13.617188 46.296875 -13.9375 45.816406 -13.9375 L 45.496094 -13.9375 C 40.6875 -12.335938 34.921875 -10.734375 29.476562 -9.132812 C 24.988281 -7.847656 20.503906 -6.40625 16.660156 -5.285156 C 16.5 -5.125 16.339844 -5.285156 16.339844 -5.605469 C 16.5 -5.925781 16.5 -6.246094 16.660156 -6.40625 C 16.660156 -8.007812 15.539062 -8.652344 13.617188 -8.652344 C 12.335938 -8.652344 10.734375 -8.328125 8.972656 -8.007812 C 7.207031 -7.6875 5.285156 -7.367188 3.84375 -7.367188 C 2.402344 -7.367188 1.921875 -7.6875 1.921875 -8.167969 C 1.921875 -11.855469 10.253906 -18.261719 15.058594 -18.261719 C 15.859375 -18.261719 16.019531 -17.941406 16.019531 -17.460938 C 16.019531 -16.339844 14.578125 -14.578125 13.457031 -13.9375 C 13.136719 -13.777344 12.976562 -13.457031 12.976562 -13.136719 C 12.976562 -12.496094 13.457031 -12.175781 13.9375 -12.175781 C 14.097656 -12.175781 14.257812 -12.175781 14.417969 -12.335938 C 15.859375 -13.136719 17.300781 -15.058594 17.78125 -16.980469 C 17.941406 -17.140625 17.941406 -17.460938 17.941406 -17.621094 C 17.941406 -19.0625 16.820312 -20.023438 15.058594 -20.023438 C 9.292969 -20.023438 0 -12.816406 0 -8.167969 C 0 -6.40625 1.441406 -5.605469 3.84375 -5.605469 C 5.445312 -5.605469 7.367188 -5.925781 9.292969 -6.246094 C 10.574219 -6.40625 14.578125 -7.046875 14.738281 -6.566406 C 15.058594 -6.085938 14.417969 -5.285156 13.9375 -4.484375 C 13.9375 -4.324219 13.777344 -4.324219 13.617188 -4.324219 C 7.207031 -1.921875 -3.363281 2.5625 -3.363281 5.605469 C -3.363281 7.046875 -2.402344 7.6875 -0.640625 7.6875 Z M -0.640625 5.765625 C -1.441406 5.765625 -1.601562 5.765625 -1.601562 5.445312 C -1.601562 4.644531 4.003906 1.441406 10.734375 -1.28125 C 11.214844 -1.28125 11.375 -1.121094 11.054688 -0.800781 C 7.847656 2.5625 3.042969 5.765625 -0.640625 5.765625 Z M -0.640625 5.765625" transform="translate(332.068 338.024)"/></g></g></g><path stroke-linecap="round" transform="matrix(.01124 0 0 -.01127 100.916 257.96)" fill="none" stroke-linejoin="round" d="M 2233.494009 7587.681954 C 2487.860599 7231.391913 2742.227188 6875.101871 3003.89118 6529.902569 C 3265.555172 6184.703268 3534.516566 5850.248122 3800.003007 5526.883716 C 4065.489447 5203.172724 4327.153439 4890.552474 4570.747673 4570.653924 C 4814.341908 4250.755375 5039.518889 3923.578527 5228.556354 3676.462963 C 5417.59382 3429.347399 5570.144275 3261.946533 5864.820324 3145.840342 C 6159.148878 3029.387566 6595.255531 2963.882879 6987.925266 2989.530217 C 7380.595002 3014.830969 7729.480325 3131.283745 8082.188096 3447.369852 C 8434.548372 3763.802545 8791.078592 4279.868569 9179.925878 4766.821399 C 9568.773165 5254.120814 9990.632509 5711.96045 10364.884992 6177.424969 C 10739.137474 6642.542904 11066.478086 7115.285722 11266.287907 7609.51685 C 11466.445223 8104.094564 11539.07175 8620.160588 11581.813676 9073.49461 C 11624.555603 9527.175218 11637.065436 9917.777238 11649.922763 10308.725845" stroke="#231F20" stroke-width="70.866" stroke-miterlimit="22.926"/><g clip-path="url(#a)"><path stroke-linecap="round" transform="matrix(.01226 0 0 -.0123 100.916 257.96)" fill="none" stroke-linejoin="round" d="M 10889.377998 9056.546286 C 11147.053262 8242.657773 11404.728525 7428.769259 11779.934286 6741.951552 C 12155.458558 6055.133845 12648.513327 5495.386944 13058.118257 5142.130103 C 13468.041699 4788.873262 13794.515302 4642.424158 14321.013709 4499.151824 C 14847.512115 4355.879491 15573.716813 4216.101604 16299.921512 4076.00604" stroke="#231F20" stroke-width="64.953" stroke-miterlimit="22.926"/></g><g clip-path="url(#b)"><path stroke-linecap="round" transform="matrix(.01124 0 0 -.01127 100.916 257.96)" fill="none" stroke-linejoin="round" d="M 1557.268075 41.47273 C 1818.932067 223.083607 2080.596059 405.04107 2480.563196 648.344192 C 2880.182839 891.9939 3418.453122 1197.335852 3970.970715 1437.173118 C 4523.488307 1677.356969 5090.600704 1851.689548 5479.447991 2026.022127 C 5868.295277 2200.701291 6079.224949 2375.03387 6222.045535 2535.156438 C 6364.518624 2694.932419 6439.230123 2840.49839 6513.594126 2985.717775" stroke="#231F20" stroke-width="70.866" stroke-miterlimit="22.926"/></g><path stroke-linecap="round" transform="matrix(.01124 0 0 -.01127 100.916 257.96)" fill="none" stroke-linejoin="round" d="M 4250.704464 7631.351746 C 4207.267547 7416.815232 4163.483134 7202.625304 4183.637863 7002.645388 C 4203.445098 6802.665471 4287.191475 6617.242152 4408.814844 6486.232778 C 4530.785709 6355.56999 4690.633566 6278.974563 4857.778825 6257.486253 C 5024.924084 6235.651358 5199.366746 6268.230408 5350.527219 6368.047074 C 5501.340197 6468.210325 5628.523492 6635.264605 5775.514021 6717.058817 C 5922.852046 6798.853029 6089.997305 6795.387172 6129.959269 6777.018133 C 6169.921233 6758.99568 6082.699903 6726.416629 6119.186914 6742.706155 C 6155.673924 6758.99568 6315.521781 6824.500367 6408.303037 6917.038733 C 6500.736798 7009.923686 6526.451453 7129.842319 6493.439396 7248.028023 C 6460.774834 7365.867142 6370.07855 7482.319919 6279.034771 7598.772695" stroke="#231F20" stroke-width="70.866" stroke-miterlimit="22.926"/><path stroke-linecap="round" transform="matrix(.01124 0 0 -.01127 100.916 257.96)" fill="none" stroke-linejoin="round" d="M 7511.25325 5428.453393 C 7227.697052 5428.453393 6944.488349 5428.453393 6646.337346 5452.021217 C 6348.186343 5475.935626 6035.440536 5523.071274 5839.453164 5524.804202 C 5643.118296 5526.883716 5563.194368 5483.213925 5482.922944 5439.544134" stroke="#231F20" stroke-width="70.866" stroke-miterlimit="22.926"/><path stroke-linecap="round" transform="matrix(.01124 0 0 -.01127 100.916 257.96)" fill="none" stroke-linejoin="round" d="M 7469.553809 5339.380882 C 7413.259564 5261.399113 7304.146027 5115.833142 7149.858095 4959.523017 C 6995.222669 4803.212891 6795.412847 4636.158611 6538.961286 4530.796575 C 6282.857219 4425.434539 5970.111412 4381.764748 5671.96041 4379.685234 C 5374.156902 4377.952306 5090.600704 4418.156241 4914.073071 4545.353172 C 4737.892933 4672.550104 4668.74136 4887.086617 4578.045076 5008.738178 C 4487.001296 5130.389739 4374.412806 5159.502933 4385.185161 5166.781232 C 4396.305012 5174.05953 4530.785709 5159.502933 4725.035605 5132.469253 C 4919.632996 5105.088987 5173.999586 5065.231638 5492.305318 5068.697495 C 5810.263555 5072.163351 6191.81344 5119.645584 6488.226966 5172.326602 C 6784.292997 5225.00762 6995.222669 5283.234008 7155.070526 5328.636727 C 7315.265878 5374.039447 7424.03192 5406.618497 7476.851211 5417.709238 C 7529.670503 5428.453393 7525.848055 5417.709238 7469.553809 5339.380882 Z M 7469.553809 5339.380882" stroke="#231F20" stroke-width="70.866" stroke-miterlimit="22.926"/><path stroke-linecap="round" transform="matrix(.01124 0 0 -.01127 100.916 257.96)" fill="none" stroke-linejoin="round" d="M 5482.922944 5428.453393 C 5344.967294 5468.657328 5206.664148 5508.514677 5105.890499 5499.50345 C 5005.11685 5490.492223 4941.525202 5432.265835 4826.156749 5366.761148 C 4710.788296 5301.256462 4543.295542 5228.473476 4376.150282 5156.037077" stroke="#231F20" stroke-width="70.866" stroke-miterlimit="22.926"/><path stroke-linecap="round" transform="matrix(.01124 0 0 -.01127 100.916 257.96)" fill="none" stroke-linejoin="round" d="M 11641.582875 10086.217861 C 11756.951328 9978.776312 11872.319782 9870.988176 12042.939994 9837.022783 C 12213.212711 9803.403976 12438.737188 9843.261325 12627.774653 9979.469483 C 12816.812119 10116.024227 12969.362574 10348.583194 13098.283345 10937.432203 C 13227.551612 11526.281212 13332.842701 12471.420263 13354.734907 13094.927836 C 13376.627114 13718.088824 13314.772943 14019.96492 13192.802078 14190.831642 C 13071.178709 14361.698365 12889.438645 14401.555714 12747.660546 14356.152994 C 12605.882447 14310.750275 12504.066312 14179.740902 12431.439786 14033.828345 C 12358.813259 13887.915789 12315.376342 13726.753465 12271.939424 13565.591141" stroke="#231F20" stroke-width="70.866" stroke-miterlimit="22.926"/><path stroke-linecap="round" transform="matrix(.01124 0 0 -.01127 100.916 257.96)" fill="none" stroke-linejoin="round" d="M 12784.147557 11715.170388 C 12878.66629 11922.428603 12972.837527 12129.686818 13047.549025 12449.585367 C 13121.913028 12769.483916 13176.469797 13202.0228 13161.874993 13463.694961 C 13147.627684 13725.367122 13063.881306 13816.519147 12967.625097 13816.519147 C 12871.368887 13816.519147 12762.25535 13725.367122 12675.03402 13600.249705 C 12587.812689 13474.785702 12522.13607 13314.663134 12476.961675 13194.744502 C 12431.439786 13074.825869 12405.72513 12994.764585 12380.35797 12915.049887" stroke="#231F20" stroke-width="70.866" stroke-miterlimit="22.926"/><path stroke-linecap="round" transform="matrix(.01124 0 0 -.01127 100.916 257.96)" fill="none" stroke-linejoin="round" d="M 2342.607546 8448.94728 L 2475.698262 8036.163778 L 2909.719943 8037.203535 L 2558.054658 7782.809672 L 2692.88285 7370.372756 L 2342.607546 7626.152961 L 1991.984747 7370.372756 L 2126.812939 7782.809672 L 1775.495149 8037.203535 L 2209.169335 8036.163778 Z M 2342.607546 8448.94728" stroke="#231F20" stroke-width="70.866" stroke-miterlimit="22.926"/><path stroke-linecap="round" transform="matrix(.01124 0 0 -.01127 100.916 257.96)" fill="none" stroke-linejoin="round" d="M 3085.20509 9289.417466 L 3218.643301 8876.633964 L 3652.317487 8877.673721 L 3300.999697 8623.279858 L 3435.827889 8210.842942 L 3085.20509 8466.623147 L 2734.929786 8210.842942 L 2869.757979 8623.279858 L 2518.440189 8877.673721 L 2952.114374 8876.633964 Z M 3085.20509 9289.417466" stroke="#231F20" stroke-width="70.866" stroke-miterlimit="22.926"/><path stroke-linecap="round" transform="matrix(.01124 0 0 -.01127 100.916 257.96)" fill="none" stroke-linejoin="round" d="M 4248.271997 8488.111457 L 4381.710208 8075.327955 L 4815.384394 8076.021127 L 4464.066604 7821.97385 L 4598.894796 7409.536933 L 4248.271997 7665.317139 L 3897.996693 7409.536933 L 4032.824885 7821.97385 L 3681.507095 8076.021127 L 4115.181281 8075.327955 Z M 4248.271997 8488.111457" stroke="#231F20" stroke-width="70.866" stroke-miterlimit="22.926"/><path stroke-linecap="round" transform="matrix(.01124 0 0 -.01127 100.916 257.96)" fill="none" stroke-linejoin="round" d="M 5772.734058 10004.423649 L 5912.774681 9548.316942 L 6369.036064 9408.296342 L 5912.774681 9267.929156 L 5772.734058 8812.169034 L 5632.693436 9267.929156 L 5176.779548 9408.296342 L 5632.693436 9548.316942 Z M 5772.734058 10004.423649" stroke="#231F20" stroke-width="70.866" stroke-miterlimit="22.926"/><path stroke-linecap="round" transform="matrix(.01124 0 0 -.01127 100.916 257.96)" fill="none" stroke-linejoin="round" d="M 6744.331032 9195.492757 L 6947.615807 8565.746642 L 7609.246936 8567.132984 L 7073.061625 8179.303649 L 7278.778867 7550.250705 L 6744.331032 7940.159554 L 6209.883198 7550.250705 L 6415.252944 8179.303649 L 5879.415128 8567.132984 L 6541.046258 8565.746642 Z M 6744.331032 9195.492757" stroke="#231F20" stroke-width="70.866" stroke-miterlimit="22.926"/><path stroke-linecap="round" transform="matrix(.01124 0 0 -.01127 100.916 257.96)" fill="none" stroke-linejoin="round" d="M 4815.384394 9416.614397 L 4948.475109 9003.830895 L 5382.149295 9004.524067 L 5030.831505 8750.47679 L 5165.659698 8338.039874 L 4815.384394 8593.820079 L 4464.761594 8338.039874 L 4599.589787 8750.47679 L 4248.271997 9004.524067 L 4681.946183 9003.830895 Z M 4815.384394 9416.614397" stroke="#231F20" stroke-width="70.866" stroke-miterlimit="22.926"/><path stroke-linecap="round" transform="matrix(.01124 0 0 -.01127 100.916 257.96)" fill="none" stroke-linejoin="round" d="M 7111.981103 10354.821735 L 7245.419314 9942.038233 L 7679.0935 9942.731405 L 7327.77571 9688.684128 L 7462.603903 9276.247212 L 7111.981103 9532.027417 L 6761.705799 9276.247212 L 6896.533992 9688.684128 L 6545.216202 9942.731405 L 6978.890388 9942.038233 Z M 7111.981103 10354.821735" stroke="#231F20" stroke-width="70.866" stroke-miterlimit="22.926"/><path stroke-linecap="round" transform="matrix(.01124 0 0 -.01127 100.916 257.96)" fill="none" stroke-linejoin="round" d="M 8532.889553 9887.970873 L 8665.980269 9475.187371 L 9100.00195 9475.880542 L 8748.336665 9221.833265 L 8883.164857 8809.396349 L 8532.889553 9065.176554 L 8182.266754 8809.396349 L 8317.094946 9221.833265 L 7965.777156 9475.880542 L 8399.451342 9475.187371 Z M 8532.889553 9887.970873" stroke="#231F20" stroke-width="70.866" stroke-miterlimit="22.926"/><path stroke-linecap="round" transform="matrix(.01124 0 0 -.01127 100.916 257.96)" fill="none" stroke-linejoin="round" d="M 9252.552405 11869.747585 L 9444.717328 11274.313449 L 10069.861447 11275.699791 L 9563.21324 10909.01218 L 9757.810631 10314.617801 L 9252.552405 10683.03834 L 8747.294179 10314.617801 L 8941.544074 10909.01218 L 8434.895867 11275.699791 L 9060.387481 11274.313449 Z M 9252.552405 11869.747585" stroke="#231F20" stroke-width="70.866" stroke-miterlimit="22.926"/><path stroke-linecap="round" transform="matrix(.01124 0 0 -.01127 100.916 257.96)" fill="none" stroke-linejoin="round" d="M 10468.091108 10963.07954 L 10601.181824 10550.296039 L 11034.85601 10550.98921 L 10683.53822 10296.941933 L 10818.366412 9884.505017 L 10468.091108 10140.285222 L 10117.468309 9884.505017 L 10252.296501 10296.941933 L 9900.978711 10550.98921 L 10334.652897 10550.296039 Z M 10468.091108 10963.07954" stroke="#231F20" stroke-width="70.866" stroke-miterlimit="22.926"/><path stroke-linecap="round" transform="matrix(.01124 0 0 -.01127 100.916 257.96)" fill="none" stroke-linejoin="round" d="M 11777.453554 11314.863969 L 11910.891765 10902.080467 L 12344.56595 10902.773638 L 11993.24816 10648.726361 L 12128.076353 10236.289445 L 11777.453554 10492.06965 L 11427.17825 10236.289445 L 11562.006442 10648.726361 L 11210.688652 10902.773638 L 11644.362838 10902.080467 Z M 11777.453554 11314.863969" stroke="#231F20" stroke-width="70.866" stroke-miterlimit="22.926"/><path stroke-linecap="round" transform="matrix(.01124 0 0 -.01127 100.916 257.96)" fill="none" stroke-linejoin="round" d="M 12650.709346 12127.95389 L 12784.147557 11715.170388 L 13217.821743 11716.210145 L 12866.156457 11461.816282 L 13001.332145 11049.725951 L 12650.709346 11305.159571 L 12300.434042 11049.725951 L 12435.262234 11461.816282 L 12083.596949 11716.210145 L 12517.61863 11715.170388 Z M 12650.709346 12127.95389" stroke="#231F20" stroke-width="70.866" stroke-miterlimit="22.926"/><path stroke-linecap="round" transform="matrix(.01124 0 0 -.01127 100.916 257.96)" fill="none" stroke-linejoin="round" d="M 12200.355384 13289.362382 L 12333.793595 12876.57888 L 12767.46778 12877.272052 L 12416.149991 12622.878189 L 12550.978183 12210.787859 L 12200.355384 12466.221478 L 11850.08008 12210.787859 L 11984.908272 12622.878189 L 11633.590482 12877.272052 L 12067.264668 12876.57888 Z M 12200.355384 13289.362382" stroke="#231F20" stroke-width="70.866" stroke-miterlimit="22.926"/><path stroke-linecap="round" transform="matrix(.01124 0 0 -.01127 100.916 257.96)" fill="none" stroke-linejoin="round" d="M 10762.072167 12732.052667 L 10950.414642 12148.402443 L 11563.743919 12149.4422 L 11066.825581 11790.032887 L 11257.253028 11207.422419 L 10762.072167 11568.56466 L 10266.54381 11207.422419 L 10457.318753 11790.032887 L 9960.400415 12149.4422 L 10573.729692 12148.402443 Z M 10762.072167 12732.052667" stroke="#231F20" stroke-width="70.866" stroke-miterlimit="22.926"/><path stroke-linecap="round" transform="matrix(.01124 0 0 -.01127 100.916 257.96)" fill="none" stroke-linejoin="round" d="M 1547.19071 9594.759418 L 1680.628921 9181.975916 L 2114.303107 9182.669088 L 1762.985317 8928.621811 L 1897.813509 8516.184894 L 1547.19071 8771.9651 L 1196.915406 8516.184894 L 1331.743599 8928.621811 L 980.425809 9182.669088 L 1414.099994 9181.975916 Z M 1547.19071 9594.759418" stroke="#231F20" stroke-width="70.866" stroke-miterlimit="22.926"/><path stroke-linecap="round" transform="matrix(.01124 0 0 -.01127 100.916 257.96)" fill="none" stroke-linejoin="round" d="M 4051.937129 10637.982206 L 4227.074781 10095.229088 L 4797.662131 10096.268845 L 4335.493328 9762.160284 L 4512.715951 9219.753752 L 4051.937129 9555.941826 L 3591.158307 9219.753752 L 3768.380931 9762.160284 L 3306.559622 10096.268845 L 3876.799477 10095.229088 Z M 4051.937129 10637.982206" stroke="#231F20" stroke-width="70.866" stroke-miterlimit="22.926"/><path stroke-linecap="round" transform="matrix(.01124 0 0 -.01127 100.916 257.96)" fill="none" stroke-linejoin="round" d="M 7119.973496 12389.972636 L 7313.528401 11790.726058 L 7942.842464 11792.112401 L 7433.066799 11422.99869 L 7628.706676 10824.791869 L 7119.973496 11195.638508 L 6611.587812 10824.791869 L 6807.227689 11422.99869 L 6297.104528 11792.112401 L 6926.766086 11790.726058 Z M 7119.973496 12389.972636" stroke="#231F20" stroke-width="70.866" stroke-miterlimit="22.926"/><path stroke-linecap="round" transform="matrix(.01124 0 0 -.01127 100.916 257.96)" fill="none" stroke-linejoin="round" d="M 10112.950869 13904.205315 L 10246.041585 13491.421813 L 10680.063266 13492.114984 L 10328.745476 13237.721121 L 10463.226173 12825.630791 L 10112.950869 13081.06441 L 9762.675566 12825.630791 L 9897.503758 13237.721121 L 9545.838473 13492.114984 L 9979.860154 13491.421813 Z M 10112.950869 13904.205315" stroke="#231F20" stroke-width="70.866" stroke-miterlimit="22.926"/><path stroke-linecap="round" transform="matrix(.01124 0 0 -.01127 100.916 257.96)" fill="none" stroke-linejoin="round" d="M 8608.643538 16297.0326 L 8820.2682 15641.639148 L 9509.003967 15643.02549 L 8950.926449 15239.253215 L 9164.983579 14584.899519 L 8608.643538 14990.751308 L 8052.303496 14584.899519 L 8266.360627 15239.253215 L 7708.630604 15643.02549 L 8397.018875 15641.639148 Z M 8608.643538 16297.0326" stroke="#231F20" stroke-width="70.866" stroke-miterlimit="22.926"/><path stroke-linecap="round" transform="matrix(.01124 0 0 -.01127 100.916 257.96)" fill="none" stroke-linejoin="round" d="M 2458.323495 11636.495447 L 2672.380625 10973.47711 L 3369.456279 10974.863452 L 2804.77635 10566.238978 L 3021.265947 9903.913813 L 2458.323495 10314.617801 L 1895.381042 9903.913813 L 2111.870639 10566.238978 L 1547.19071 10974.863452 L 2244.266364 10973.47711 Z M 2458.323495 11636.495447" stroke="#231F20" stroke-width="70.866" stroke-miterlimit="22.926"/><path stroke-linecap="round" transform="matrix(.01124 0 0 -.01127 100.916 257.96)" fill="none" stroke-linejoin="round" d="M 1590.280132 13434.928353 L 1723.718343 13022.144851 L 2157.392529 13022.838022 L 1806.074739 12768.790745 L 1940.902932 12356.353829 L 1590.280132 12612.134034 L 1240.004829 12356.353829 L 1374.833021 12768.790745 L 1023.515231 13022.838022 L 1457.189417 13022.144851 Z M 1590.280132 13434.928353" stroke="#231F20" stroke-width="70.866" stroke-miterlimit="22.926"/><path stroke-linecap="round" transform="matrix(.01124 0 0 -.01127 100.916 257.96)" fill="none" stroke-linejoin="round" d="M 5049.248758 13992.238068 L 5182.686969 13579.454566 L 5616.361155 13580.147738 L 5265.043365 13325.753875 L 5399.871557 12913.663544 L 5049.248758 13169.44375 L 4698.973454 12913.663544 L 4833.801647 13325.753875 L 4482.136361 13580.147738 L 4916.158043 13579.454566 Z M 5049.248758 13992.238068" stroke="#231F20" stroke-width="70.866" stroke-miterlimit="22.926"/><path stroke-linecap="round" transform="matrix(.01124 0 0 -.01127 100.916 257.96)" fill="none" stroke-linejoin="round" d="M 3051.150547 15867.266402 L 3270.420107 15152.95339 L 3984.523033 14933.564677 L 3270.420107 14714.175964 L 3051.150547 14000.209538 L 2831.880986 14714.175964 L 2117.77806 14933.564677 L 2831.880986 15152.95339 Z M 3051.150547 15867.266402" stroke="#231F20" stroke-width="70.866" stroke-miterlimit="22.926"/><path stroke-linecap="round" transform="matrix(.01124 0 0 -.01127 100.916 257.96)" fill="none" stroke-linejoin="round" d="M 8255.588271 13902.472386 L 8395.628893 13446.365679 L 8851.890276 13306.345079 L 8395.628893 13166.324479 L 8255.588271 12710.217771 L 8115.547649 13166.324479 L 7659.286266 13306.345079 L 8115.547649 13446.365679 Z M 8255.588271 13902.472386" stroke="#231F20" stroke-width="70.866" stroke-miterlimit="22.926"/><path stroke-linecap="round" transform="matrix(.01274 0 0 -.01277 100.916 257.96)" fill="none" stroke-linejoin="round" d="M 3711.177373 16300.093582 L 3835.052878 15897.634677 L 4237.341645 15774.083463 L 3835.052878 15650.226429 L 3711.177373 15247.767524 L 3587.608491 15650.226429 L 3185.319723 15774.083463 L 3587.608491 15897.634677 Z M 3711.177373 16300.093582" stroke="#231F20" stroke-width="62.529" stroke-miterlimit="22.926"/><path stroke-linecap="round" transform="matrix(.01124 0 0 -.01127 100.916 257.96)" fill="none" stroke-linejoin="round" d="M 4870.636153 12263.815462 L 5010.676775 11807.708755 L 5466.938158 11667.688155 L 5010.676775 11527.667554 L 4870.636153 11071.560847 L 4730.59553 11527.667554 L 4274.681643 11667.688155 L 4730.59553 11807.708755 Z M 4870.636153 12263.815462" stroke="#231F20" stroke-width="70.866" stroke-miterlimit="22.926"/><path stroke-linecap="round" transform="matrix(.01215 0 0 -.01218 100.916 257.96)" fill="none" stroke-linejoin="round" d="M 5850.010338 16299.99685 L 5979.557619 15878.066501 L 6401.631021 15748.537731 L 5979.557619 15619.008961 L 5850.010338 15196.757996 L 5720.463056 15619.008961 L 5298.711112 15748.537731 L 5720.463056 15878.066501 Z M 5850.010338 16299.99685" stroke="#231F20" stroke-width="65.558" stroke-miterlimit="22.926"/><path stroke-linecap="round" transform="matrix(.01124 0 0 -.01127 100.916 257.96)" fill="none" stroke-linejoin="round" d="M 6011.115863 15658.621844 L 6151.156485 15202.515137 L 6607.070373 15062.147951 L 6151.156485 14922.127351 L 6011.115863 14466.367229 L 5870.727745 14922.127351 L 5414.813857 15062.147951 L 5870.727745 15202.515137 Z M 6011.115863 15658.621844" stroke="#231F20" stroke-width="70.866" stroke-miterlimit="22.926"/><path stroke-linecap="round" transform="matrix(.01124 0 0 -.01127 100.916 257.96)" fill="none" stroke-linejoin="round" d="M 10948.677165 14860.088521 L 11048.408328 14534.991187 L 11373.663967 14435.174521 L 11048.408328 14335.357856 L 10948.677165 14009.913936 L 10848.598507 14335.357856 L 10523.342867 14435.174521 L 10848.598507 14534.991187 Z M 10948.677165 14860.088521" stroke="#231F20" stroke-width="70.866" stroke-miterlimit="22.926"/><path stroke-linecap="round" transform="matrix(.01236 0 0 -.0124 100.916 257.96)" fill="none" stroke-linejoin="round" d="M 7353.835186 16299.942849 L 7444.516366 16004.346092 L 7740.257079 15913.272038 L 7444.516366 15822.513119 L 7353.835186 15526.916363 L 7262.838044 15822.513119 L 6967.097331 15913.272038 L 7262.838044 16004.346092 Z M 7353.835186 16299.942849" stroke="#231F20" stroke-width="64.436" stroke-miterlimit="22.926"/><g clip-path="url(#c)"><path stroke-linecap="round" transform="matrix(.01347 0 0 -.0135 100.916 257.96)" fill="none" stroke-linejoin="round" d="M 5151.49501 16299.927331 L 5234.736111 16028.583269 L 5506.212313 15945.270806 L 5234.736111 15861.669065 L 5151.49501 15590.325002 L 5067.963871 15861.669065 L 4796.487669 15945.270806 L 5067.963871 16028.583269 Z M 5151.49501 16299.927331" stroke="#231F20" stroke-width="59.148" stroke-miterlimit="22.926"/></g><path stroke-linecap="round" transform="matrix(.0115 0 0 -.01153 100.916 257.96)" fill="none" stroke-linejoin="round" d="M 1604.459472 16299.913727 L 1701.948396 15982.125506 L 2019.891365 15884.553004 L 1701.948396 15786.641708 L 1604.459472 15468.853487 L 1506.630866 15786.641708 L 1188.687897 15884.553004 L 1506.630866 15982.125506 Z M 1604.459472 16299.913727" stroke="#231F20" stroke-width="69.271" stroke-miterlimit="22.926"/><path stroke-linecap="round" transform="matrix(.01124 0 0 -.01127 100.916 257.96)" fill="none" stroke-linejoin="round" d="M 3713.476667 13000.656541 L 3813.20783 12675.212621 L 4138.463469 12575.395956 L 3813.20783 12475.57929 L 3713.476667 12150.135371 L 3613.398009 12475.57929 L 3288.142369 12575.395956 L 3613.398009 12675.212621 Z M 3713.476667 13000.656541" stroke="#231F20" stroke-width="70.866" stroke-miterlimit="22.926"/><g clip-path="url(#d)"><path stroke-linecap="round" transform="matrix(.01124 0 0 -.01127 100.916 257.96)" fill="none" stroke-linejoin="round" d="M 468.565171 11436.862116 L 568.296334 11111.418196 L 893.551973 11011.601531 L 568.296334 10911.784865 L 468.565171 10586.340946 L 368.486513 10911.784865 L 43.230874 11011.601531 L 368.486513 11111.418196 Z M 468.565171 11436.862116" stroke="#231F20" stroke-width="70.866" stroke-miterlimit="22.926"/></g></svg>